<svg width="120" height="42" xmlns="http://www.w3.org/2000/svg" xmlns:xlink="http://www.w3.org/1999/xlink" id="svg2759" overflow="hidden"><defs id="defs2761"></defs><g id="layer1"><g id="g2630"><path d="M3.40833 0.452685 116.762 0.654042C118.346 0.654042 119.761 0.419208 119.761 3.81457L119.622 41.1436 0.547334 41.1436 0.547334 3.6758C0.547334 2.00141 0.7094 0.452685 3.40833 0.452685Z" id="path3817_5_" fill="#AAB2AB"/><path d="M117.753-1.41735e-06 2.24763-1.41735e-06C1.00832-1.41735e-06-2.04087e-05 1.00823-2.04087e-05 2.24691L-2.04087e-05 41.493C-2.04087e-05 41.7729 0.227078 42 0.507543 42L119.492 42C119.773 42 120 41.7729 120 41.493L120 2.24691C120 1.00823 118.992-1.41735e-06 117.753-1.41735e-06ZM2.24763 1.01502 117.753 1.01502C118.433 1.01502 118.985 1.56765 118.985 2.24692 118.985 2.24692 118.985 18.0433 118.985 29.4675L36.4283 29.4675C33.4023 34.9386 27.5716 38.6532 20.881 38.6532 14.1885 38.6532 8.35978 34.942 5.33574 29.4675L1.01512 29.4675C1.01512 18.0433 1.01512 2.24692 1.01512 2.24692 1.01511 1.56765 1.56828 1.01502 2.24763 1.01502Z" id="path120"/><g id="g5908_5_" transform="matrix(0.867492 0 0 0.867395 -387.31 67.8709)"><path d="M486.266-55.7066C486.272-47.0258 479.238-39.9851 470.558-39.9795 461.878-39.9739 454.836-47.0074 454.831-55.6876 454.831-55.6943 454.831-55.6999 454.831-55.7066 454.825-64.3874 461.859-71.4281 470.539-71.4337 479.22-71.4387 486.261-64.4059 486.266-55.7256 486.266-55.7195 486.266-55.7128 486.266-55.7066Z" id="path5906_5_" fill="#FFFFFF"/><g id="g5706_5_" transform="translate(-289.616 99.0653)"><path d="M772.942-167.574C776.427-164.089 778.169-159.821 778.169-154.772 778.169-149.723 776.457-145.5 773.031-142.104 769.395-138.528 765.099-136.74 760.141-136.74 755.243-136.74 751.021-138.513 747.477-142.06 743.931-145.605 742.159-149.842 742.159-154.772 742.159-159.701 743.931-163.968 747.477-167.574 750.932-171.061 755.154-172.804 760.141-172.804 765.19-172.804 769.456-171.061 772.942-167.574ZM749.823-165.229C746.876-162.253 745.403-158.766 745.403-154.767 745.403-150.769 746.862-147.312 749.777-144.396 752.695-141.48 756.166-140.021 760.195-140.021 764.223-140.021 767.725-141.494 770.702-144.44 773.528-147.177 774.941-150.618 774.941-154.767 774.941-158.885 773.504-162.38 770.633-165.252 767.762-168.122 764.283-169.558 760.195-169.558 756.107-169.558 752.648-168.115 749.823-165.229ZM757.577-156.526C757.127-157.508 756.454-157.999 755.554-157.999 753.966-157.999 753.171-156.929 753.171-154.79 753.171-152.65 753.966-151.581 755.554-151.581 756.604-151.581 757.353-152.102 757.803-153.146L760.006-151.973C758.955-150.107 757.38-149.174 755.28-149.174 753.66-149.174 752.363-149.671 751.388-150.663 750.413-151.657 749.925-153.027 749.925-154.772 749.925-156.487 750.428-157.848 751.433-158.857 752.438-159.865 753.691-160.37 755.191-160.37 757.411-160.37 759-159.495 759.962-157.747L757.577-156.526ZM767.941-156.526C767.49-157.508 766.829-157.999 765.958-157.999 764.338-157.999 763.526-156.929 763.526-154.79 763.526-152.65 764.338-151.581 765.958-151.581 767.01-151.581 767.746-152.102 768.166-153.146L770.418-151.973C769.37-150.107 767.797-149.174 765.7-149.174 764.082-149.174 762.788-149.671 761.814-150.663 760.841-151.657 760.354-153.027 760.354-154.772 760.354-156.487 760.848-157.848 761.837-158.857 762.825-159.865 764.082-160.37 765.611-160.37 767.827-160.37 769.414-159.495 770.372-157.747L767.941-156.526Z" id="path5708_5_"/></g></g><g id="g126" transform="matrix(0.993781 0 0 0.99367 -437.123 -74.4369)"><circle cx="491.946" cy="90.2319" r="10.8062" id="circle128" fill="#FFFFFF"/><g id="g130"><path d="M495.074 87.105C495.074 86.6885 494.736 86.3511 494.32 86.3511L489.547 86.3511C489.131 86.3511 488.793 86.6885 488.793 87.105L488.793 91.8779 490.125 91.8779 490.125 97.5298 493.742 97.5298 493.742 91.8779 495.074 91.8779 495.074 87.105 495.074 87.105Z" id="path132"/><circle cx="491.934" cy="84.0903" r="1.63232" id="circle134"/></g><path d="M491.918 78.3252C488.687 78.3252 485.951 79.4531 483.711 81.709 481.414 84.0425 480.265 86.8047 480.265 89.9937 480.265 93.1826 481.414 95.9253 483.711 98.2207 486.009 100.515 488.746 101.663 491.918 101.663 495.131 101.663 497.917 100.506 500.273 98.1909 502.493 95.9937 503.602 93.2612 503.602 89.9937 503.602 86.7261 502.473 83.9648 500.214 81.709 497.956 79.4531 495.191 78.3252 491.918 78.3252ZM491.949 80.4248C494.597 80.4248 496.845 81.3589 498.695 83.2261 500.565 85.0732 501.5 87.3296 501.5 89.9937 501.5 92.6772 500.584 94.9043 498.753 96.6743 496.826 98.5801 494.557 99.5327 491.949 99.5327 489.338 99.5327 487.089 98.5898 485.201 96.7031 483.312 94.8169 482.368 92.5806 482.368 89.9937 482.368 87.4067 483.322 85.1514 485.23 83.2261 487.061 81.3589 489.3 80.4248 491.949 80.4248Z" id="path136" fill-rule="evenodd" clip-rule="evenodd"/></g><g id="g138" transform="matrix(0.993781 0 0 0.99367 -437.123 -74.4369)"><path d="M488.563 107.867C488.88 107.867 489.17 107.896 489.432 107.951 489.694 108.007 489.918 108.099 490.106 108.227 490.292 108.354 490.437 108.523 490.541 108.734 490.643 108.946 490.695 109.207 490.695 109.519 490.695 109.854 490.619 110.134 490.465 110.357 490.313 110.582 490.086 110.765 489.788 110.908 490.2 111.026 490.507 111.233 490.71 111.529 490.914 111.825 491.015 112.182 491.015 112.599 491.015 112.935 490.95 113.226 490.819 113.472 490.688 113.717 490.511 113.918 490.29 114.073 490.069 114.229 489.816 114.345 489.533 114.419 489.249 114.494 488.958 114.531 488.658 114.531L485.421 114.531 485.421 107.867 488.563 107.867 488.563 107.867ZM488.375 110.562C488.637 110.562 488.852 110.5 489.02 110.376 489.189 110.252 489.273 110.051 489.273 109.771 489.273 109.616 489.245 109.488 489.189 109.39 489.132 109.29 489.058 109.213 488.964 109.156 488.871 109.101 488.763 109.062 488.642 109.04 488.52 109.019 488.394 109.008 488.263 109.008L486.89 109.008 486.89 110.562 488.375 110.562ZM488.461 113.391C488.605 113.391 488.742 113.377 488.873 113.349 489.003 113.32 489.119 113.273 489.219 113.209 489.319 113.144 489.398 113.055 489.458 112.942 489.516 112.831 489.546 112.688 489.546 112.514 489.546 112.172 489.45 111.928 489.256 111.781 489.063 111.636 488.807 111.562 488.49 111.562L486.89 111.562 486.89 113.391 488.461 113.391Z" id="path140" fill="#FFFFFF"/><path d="M491.274 107.867 492.917 107.867 494.477 110.499 496.029 107.867 497.663 107.867 495.188 111.974 495.188 114.531 493.719 114.531 493.719 111.937 491.274 107.867Z" id="path142" fill="#FFFFFF"/></g><g id="g144" transform="matrix(0.993781 0 0 0.99367 -437.123 -74.4369)"><path d="M538.916 112.884C538.997 113.039 539.103 113.165 539.237 113.262 539.371 113.358 539.527 113.43 539.708 113.477 539.887 113.523 540.073 113.547 540.266 113.547 540.396 113.547 540.536 113.536 540.685 113.514 540.833 113.492 540.973 113.45 541.104 113.388 541.234 113.326 541.342 113.24 541.43 113.131 541.516 113.022 541.56 112.884 541.56 112.716 541.56 112.535 541.502 112.39 541.387 112.277 541.273 112.165 541.122 112.072 540.936 111.997 540.75 111.923 540.538 111.857 540.302 111.801 540.066 111.745 539.827 111.683 539.584 111.614 539.335 111.552 539.093 111.476 538.857 111.386 538.622 111.296 538.41 111.179 538.223 111.035 538.038 110.893 537.886 110.714 537.772 110.499 537.657 110.284 537.599 110.024 537.599 109.72 537.599 109.377 537.672 109.08 537.818 108.828 537.964 108.576 538.156 108.366 538.391 108.197 538.627 108.029 538.895 107.905 539.194 107.824 539.492 107.743 539.791 107.703 540.088 107.703 540.437 107.703 540.771 107.742 541.091 107.82 541.411 107.897 541.696 108.024 541.944 108.198 542.193 108.373 542.39 108.596 542.537 108.866 542.682 109.138 542.755 109.466 542.755 109.852L541.333 109.852C541.321 109.652 541.28 109.487 541.208 109.357 541.137 109.227 541.042 109.124 540.924 109.049 540.807 108.975 540.672 108.921 540.521 108.891 540.37 108.859 540.204 108.844 540.024 108.844 539.907 108.844 539.789 108.856 539.671 108.881 539.553 108.906 539.447 108.949 539.351 109.012 539.254 109.074 539.176 109.151 539.114 109.245 539.052 109.339 539.021 109.457 539.021 109.6 539.021 109.73 539.045 109.837 539.095 109.917 539.145 109.998 539.243 110.073 539.389 110.142 539.536 110.21 539.737 110.278 539.995 110.347 540.252 110.415 540.59 110.503 541.006 110.608 541.13 110.633 541.303 110.679 541.523 110.744 541.744 110.81 541.963 110.913 542.18 111.057 542.398 111.2 542.585 111.392 542.745 111.631 542.903 111.87 542.982 112.177 542.982 112.551 542.982 112.855 542.922 113.139 542.804 113.4 542.686 113.662 542.51 113.888 542.277 114.077 542.043 114.268 541.754 114.415 541.409 114.521 541.064 114.627 540.665 114.68 540.209 114.68 539.842 114.68 539.487 114.634 539.141 114.544 538.795 114.453 538.491 114.312 538.227 114.118 537.962 113.925 537.752 113.678 537.596 113.379 537.441 113.08 537.366 112.726 537.373 112.314L538.794 112.314C538.794 112.538 538.834 112.729 538.916 112.884Z" id="path146" fill="#FFFFFF"/><path d="M547.172 107.867 549.665 114.531 548.143 114.531 547.639 113.047 545.147 113.047 544.624 114.531 543.149 114.531 545.669 107.867 547.172 107.867ZM547.256 111.953 546.417 109.51 546.397 109.51 545.53 111.953 547.256 111.953Z" id="path148" fill="#FFFFFF"/></g><g id="g150" transform="matrix(0.993781 0 0 0.99367 -437.123 -74.4369)"><path d="M512.831 107.867 515.615 112.338 515.63 112.338 515.63 107.867 517.005 107.867 517.005 114.531 515.54 114.531 512.766 110.069 512.748 110.069 512.748 114.531 511.373 114.531 511.373 107.867 512.831 107.867Z" id="path152" fill="#FFFFFF"/><path d="M522.569 109.643C522.482 109.502 522.373 109.379 522.242 109.273 522.111 109.168 521.963 109.085 521.798 109.026 521.633 108.967 521.46 108.938 521.281 108.938 520.951 108.938 520.67 109.001 520.44 109.129 520.209 109.256 520.023 109.427 519.88 109.642 519.737 109.856 519.632 110.101 519.567 110.374 519.501 110.647 519.469 110.931 519.469 111.223 519.469 111.503 519.501 111.775 519.567 112.039 519.632 112.304 519.737 112.542 519.88 112.753 520.023 112.965 520.209 113.134 520.44 113.262 520.67 113.39 520.951 113.453 521.281 113.453 521.728 113.453 522.079 113.316 522.331 113.042 522.583 112.769 522.737 112.407 522.792 111.959L524.211 111.959C524.174 112.376 524.078 112.753 523.922 113.089 523.767 113.426 523.561 113.712 523.306 113.949 523.051 114.187 522.752 114.367 522.41 114.492 522.068 114.617 521.691 114.68 521.281 114.68 520.77 114.68 520.311 114.591 519.903 114.413 519.496 114.236 519.151 113.991 518.871 113.681 518.59 113.369 518.375 113.003 518.225 112.583 518.076 112.162 518 111.71 518 111.224 518 110.726 518.076 110.264 518.225 109.837 518.375 109.41 518.59 109.038 518.871 108.721 519.151 108.403 519.496 108.154 519.903 107.974 520.311 107.793 520.77 107.703 521.281 107.703 521.648 107.703 521.995 107.756 522.321 107.862 522.648 107.968 522.941 108.122 523.199 108.325 523.458 108.527 523.67 108.778 523.838 109.077 524.006 109.376 524.112 109.719 524.156 110.104L522.737 110.104C522.711 109.937 522.656 109.782 522.569 109.643Z" id="path154" fill="#FFFFFF"/></g><g id="g6332_1_" transform="matrix(0.621108 0 0 0.621039 -285.772 240.49)"><path d="M644.576-363.116C644.584-353.704 636.959-346.068 627.547-346.061 618.134-346.055 610.5-353.678 610.492-363.092 610.492-363.099 610.492-363.109 610.492-363.116 610.485-372.527 618.111-380.163 627.522-380.171 636.934-380.178 644.569-372.552 644.576-363.141 644.576-363.132 644.576-363.125 644.576-363.116Z" id="path6334_1_" fill="#FFFFFF"/><g id="g6336_1_" transform="translate(-23.9521 -89.7296)"><path d="M651.364-292.057C646.192-292.057 641.814-290.251 638.233-286.643 634.556-282.909 632.717-278.489 632.717-273.386 632.717-268.283 634.556-263.896 638.233-260.223 641.908-256.552 646.286-254.716 651.364-254.716 656.505-254.716 660.96-256.568 664.73-260.27 668.282-263.787 670.058-268.159 670.058-273.386 670.058-278.613 668.252-283.033 664.636-286.643 661.022-290.251 656.599-292.057 651.364-292.057ZM651.411-288.696C655.649-288.696 659.246-287.203 662.207-284.214 665.197-281.259 666.693-277.651 666.693-273.386 666.693-269.092 665.229-265.53 662.299-262.696 659.216-259.648 655.585-258.123 651.411-258.123 647.236-258.123 643.638-259.633 640.616-262.651 637.594-265.67 636.083-269.247 636.083-273.386 636.083-277.525 637.608-281.135 640.663-284.214 643.591-287.203 647.174-288.696 651.411-288.696Z" id="path6338_1_"/><path d="M643.089-276.02C643.833-280.719 647.139-283.23 651.285-283.23 657.244-283.23 660.877-278.905 660.877-273.138 660.877-267.509 657.011-263.139 651.191-263.139 647.186-263.139 643.6-265.602 642.949-270.44L647.652-270.44C647.792-267.929 649.422-267.045 651.75-267.045 654.403-267.045 656.127-269.509 656.127-273.277 656.127-277.231 654.638-279.323 651.842-279.323 649.794-279.323 648.025-278.578 647.652-276.02L649.019-276.03 645.317-272.327 641.616-276.03 643.089-276.02Z" id="path6340_1_"/></g></g><g id="g2366" transform="translate(0.000497233 0.00962355)"><path d="M87.8014 14.9812C87.8062 20.4818 83.3498 24.9431 77.8481 24.9475 72.3474 24.9509 67.8852 20.4954 67.8813 14.9958 67.8813 14.99 67.8813 14.9856 67.8813 14.9812 67.8774 9.48014 72.3339 5.01882 77.8345 5.01444 83.3352 5.01103 87.7975 9.46655 87.8014 14.9662 87.8014 14.971 87.8014 14.9764 87.8014 14.9812Z" id="path6372_1_" fill="#FFFFFF"/><path d="M86.0704 6.74556C83.8252 4.50327 81.0776 3.38283 77.8267 3.38283 74.614 3.38283 71.8954 4.50327 69.6701 6.74556 67.386 9.06501 66.245 11.8091 66.245 14.9793 66.245 18.1488 67.386 20.8746 69.6701 23.1544 71.9534 25.4356 74.6721 26.5758 77.8267 26.5758 81.0195 26.5758 83.787 25.4257 86.1284 23.126 88.3346 20.9418 89.438 18.226 89.438 14.9793 89.438 11.732 88.3155 8.98715 86.0704 6.74556ZM84.6187 21.6184C82.7027 23.5125 80.4484 24.4588 77.8557 24.4588 75.2624 24.4588 73.0271 23.5217 71.1501 21.6468 69.273 19.7718 68.3345 17.5493 68.3345 14.9793 68.3345 13.8922 68.5061 12.8644 68.8455 11.8955L71.9184 13.2555 71.6968 13.2555 71.6968 14.6336 72.7844 14.6336C72.7844 14.8282 72.7649 15.0222 72.7649 15.2161L72.7649 15.5466 71.6968 15.5466 71.6968 16.9247 72.9588 16.9247C73.1337 17.9538 73.5219 18.7883 74.046 19.4487 75.1332 20.8855 76.8804 21.662 78.7829 21.662 80.0258 21.662 81.1512 21.2932 81.8116 20.9237L81.3451 18.7692C80.9374 18.983 80.0258 19.2739 79.1326 19.2739 78.1615 19.2739 77.2495 18.983 76.628 18.2837 76.3368 17.9538 76.1234 17.5072 75.9878 16.9247L80.2084 16.9247 86.2056 19.5793C85.7901 20.3154 85.2628 20.9956 84.6187 21.6184ZM77.0764 15.5466 77.0509 15.5272 77.0948 15.5466 77.0764 15.5466ZM80.6869 14.6336 80.8603 14.6336 80.8603 13.2555 77.5733 13.2555 76.2381 12.6645C76.3531 12.4062 76.489 12.1751 76.6475 11.9942 77.2495 11.2553 78.1034 10.9453 79.0356 10.9453 79.8899 10.9453 80.6855 11.1972 81.1901 11.411L81.7337 9.19772C81.0344 8.88771 80.006 8.61591 78.8218 8.61591 76.9971 8.61591 75.4439 9.35344 74.3373 10.5956 74.0917 10.8794 73.8786 11.1979 73.6854 11.5349L69.8718 9.84712C70.2412 9.29292 70.6758 8.76066 71.1791 8.25317 72.9988 6.39733 75.2234 5.46941 77.8557 5.46941 80.4873 5.46941 82.7225 6.39733 84.5613 8.25317 86.4186 10.0892 87.3472 12.3308 87.3472 14.9793 87.3472 15.852 87.2481 16.6752 87.0528 17.451L80.6869 14.6336Z" id="path45"/></g></g></g></svg>